<svg width="24" height="25" viewBox="0 0 24 25" fill="none" xmlns="http://www.w3.org/2000/svg">
<path d="M7.84615 10.1852C7.20717 10.1852 6.58253 10.3753 6.05123 10.7313C5.51994 11.0874 5.10584 11.5936 4.86131 12.1857C4.61678 12.7779 4.5528 13.4295 4.67746 14.0582C4.80212 14.6868 5.10982 15.2642 5.56166 15.7175C6.01349 16.1707 6.58915 16.4794 7.21586 16.6044C7.84257 16.7294 8.49217 16.6653 9.08252 16.42C9.67286 16.1747 10.1774 15.7593 10.5324 15.2264C10.8874 14.6934 11.0769 14.0669 11.0769 13.4259C11.0769 12.5664 10.7365 11.7421 10.1307 11.1344C9.52477 10.5266 8.70301 10.1852 7.84615 10.1852ZM7.84615 14.8148C7.5723 14.8148 7.3046 14.7334 7.0769 14.5807C6.8492 14.4281 6.67173 14.2112 6.56694 13.9574C6.46214 13.7036 6.43472 13.4244 6.48814 13.155C6.54157 12.8855 6.67344 12.6381 6.86708 12.4438C7.06072 12.2496 7.30744 12.1173 7.57603 12.0637C7.84462 12.0101 8.12302 12.0376 8.37602 12.1428C8.62903 12.2479 8.84528 12.4259 8.99742 12.6543C9.14956 12.8827 9.23077 13.1512 9.23077 13.4259C9.23077 13.7943 9.08489 14.1476 8.82522 14.408C8.56556 14.6685 8.21338 14.8148 7.84615 14.8148ZM16.1538 10.1852C15.5149 10.1852 14.8902 10.3753 14.3589 10.7313C13.8276 11.0874 13.4135 11.5936 13.169 12.1857C12.9245 12.7779 12.8605 13.4295 12.9852 14.0582C13.1098 14.6868 13.4175 15.2642 13.8693 15.7175C14.3212 16.1707 14.8968 16.4794 15.5236 16.6044C16.1503 16.7294 16.7999 16.6653 17.3902 16.42C17.9806 16.1747 18.4851 15.7593 18.8401 15.2264C19.1951 14.6934 19.3846 14.0669 19.3846 13.4259C19.3846 12.5664 19.0442 11.7421 18.4383 11.1344C17.8325 10.5266 17.0107 10.1852 16.1538 10.1852ZM16.1538 14.8148C15.88 14.8148 15.6123 14.7334 15.3846 14.5807C15.1569 14.4281 14.9794 14.2112 14.8746 13.9574C14.7698 13.7036 14.7424 13.4244 14.7958 13.155C14.8493 12.8855 14.9811 12.6381 15.1748 12.4438C15.3684 12.2496 15.6151 12.1173 15.8837 12.0637C16.1523 12.0101 16.4307 12.0376 16.6837 12.1428C16.9367 12.2479 17.153 12.4259 17.3051 12.6543C17.4573 12.8827 17.5385 13.1512 17.5385 13.4259C17.5385 13.7943 17.3926 14.1476 17.1329 14.408C16.8733 14.6685 16.5211 14.8148 16.1538 14.8148ZM12 0C5.38269 0 0 5.19213 0 11.5741C0 15.5208 2.10808 19.213 5.53846 21.3287V23.1481C5.53846 23.6393 5.73297 24.1103 6.07919 24.4576C6.42541 24.8049 6.89499 25 7.38462 25H16.6154C17.105 25 17.5746 24.8049 17.9208 24.4576C18.267 24.1103 18.4615 23.6393 18.4615 23.1481V21.3287C21.8919 19.213 24 15.5208 24 11.5741C24 5.19213 18.6173 0 12 0ZM17.0908 19.9873C16.9466 20.0674 16.8265 20.1849 16.7429 20.3273C16.6594 20.4698 16.6153 20.6321 16.6154 20.7975V23.1481H14.7692V20.3704C14.7692 20.1248 14.672 19.8893 14.4989 19.7156C14.3258 19.542 14.091 19.4444 13.8462 19.4444C13.6013 19.4444 13.3666 19.542 13.1934 19.7156C13.0203 19.8893 12.9231 20.1248 12.9231 20.3704V23.1481H11.0769V20.3704C11.0769 20.1248 10.9797 19.8893 10.8066 19.7156C10.6334 19.542 10.3987 19.4444 10.1538 19.4444C9.90903 19.4444 9.67424 19.542 9.50113 19.7156C9.32802 19.8893 9.23077 20.1248 9.23077 20.3704V23.1481H7.38462V20.7975C7.3847 20.6321 7.34065 20.4698 7.25705 20.3273C7.17346 20.1849 7.05336 20.0674 6.90923 19.9873C3.78577 18.2512 1.84615 15.0278 1.84615 11.5741C1.84615 6.21296 6.40154 1.85185 12 1.85185C17.5985 1.85185 22.1538 6.21296 22.1538 11.5741C22.1538 15.0266 20.2142 18.2512 17.0908 19.9873Z" fill="#009B19"/>
</svg>
