<svg width="24" height="25" viewBox="0 0 24 25" fill="none" xmlns="http://www.w3.org/2000/svg">
<path d="M12 0C5.38269 0 0 5.19213 0 11.5741C0 15.5208 2.10808 19.213 5.53846 21.3287V23.1481C5.53846 23.6393 5.73297 24.1103 6.07919 24.4576C6.42541 24.8049 6.89499 25 7.38462 25H16.6154C17.105 25 17.5746 24.8049 17.9208 24.4576C18.267 24.1103 18.4615 23.6393 18.4615 23.1481V21.3287C21.8919 19.213 24 15.5208 24 11.5741C24 5.19213 18.6173 0 12 0ZM17.0908 19.9873C16.9466 20.0674 16.8265 20.1849 16.7429 20.3273C16.6594 20.4698 16.6153 20.6321 16.6154 20.7975V23.1481H14.7692V20.3704C14.7692 20.1248 14.672 19.8893 14.4989 19.7156C14.3258 19.542 14.091 19.4444 13.8462 19.4444C13.6013 19.4444 13.3666 19.542 13.1934 19.7156C13.0203 19.8893 12.9231 20.1248 12.9231 20.3704V23.1481H11.0769V20.3704C11.0769 20.1248 10.9797 19.8893 10.8066 19.7156C10.6334 19.542 10.3987 19.4444 10.1538 19.4444C9.90903 19.4444 9.67424 19.542 9.50113 19.7156C9.32802 19.8893 9.23077 20.1248 9.23077 20.3704V23.1481H7.38462V20.7975C7.3847 20.6321 7.34065 20.4698 7.25705 20.3273C7.17346 20.1849 7.05336 20.0674 6.90923 19.9873C3.78577 18.2512 1.84615 15.0278 1.84615 11.5741C1.84615 6.21296 6.40154 1.85185 12 1.85185C17.5985 1.85185 22.1538 6.21296 22.1538 11.5741C22.1538 15.0266 20.2142 18.2512 17.0908 19.9873Z" fill="#BB0000"/>
<path fill-rule="evenodd" clip-rule="evenodd" d="M5.64073 10.7071C6.03126 10.3166 6.66442 10.3166 7.05495 10.7071L10.5905 14.2426C10.981 14.6332 10.981 15.2663 10.5905 15.6569C10.2 16.0474 9.56679 16.0474 9.17627 15.6569L5.64073 12.1213C5.25021 11.7308 5.25021 11.0976 5.64073 10.7071Z" fill="#BB0000"/>
<path fill-rule="evenodd" clip-rule="evenodd" d="M5.70711 15.7232C5.31658 15.3327 5.31658 14.6995 5.70711 14.309L9.24264 10.7735C9.63316 10.383 10.2663 10.383 10.6569 10.7735C11.0474 11.164 11.0474 11.7972 10.6569 12.1877L7.12132 15.7232C6.7308 16.1138 6.09763 16.1138 5.70711 15.7232Z" fill="#BB0000"/>
<path fill-rule="evenodd" clip-rule="evenodd" d="M13.7071 10.7071C14.0976 10.3166 14.7308 10.3166 15.1213 10.7071L18.6569 14.2426C19.0474 14.6332 19.0474 15.2663 18.6569 15.6569C18.2663 16.0474 17.6332 16.0474 17.2426 15.6569L13.7071 12.1213C13.3166 11.7308 13.3166 11.0976 13.7071 10.7071Z" fill="#BB0000"/>
<path fill-rule="evenodd" clip-rule="evenodd" d="M13.7735 15.7232C13.383 15.3327 13.383 14.6995 13.7735 14.309L17.309 10.7735C17.6995 10.383 18.3327 10.383 18.7232 10.7735C19.1138 11.164 19.1138 11.7972 18.7232 12.1877L15.1877 15.7232C14.7972 16.1138 14.164 16.1138 13.7735 15.7232Z" fill="#BB0000"/>
</svg>
