<svg width="24" height="25" viewBox="0 0 24 25" fill="none" xmlns="http://www.w3.org/2000/svg">
<path d="M12 0C5.38269 0 0 5.19213 0 11.5741C0 15.5208 2.10808 19.213 5.53846 21.3287V23.1481C5.53846 23.6393 5.73297 24.1103 6.07919 24.4576C6.42541 24.8049 6.89499 25 7.38462 25H16.6154C17.105 25 17.5746 24.8049 17.9208 24.4576C18.267 24.1103 18.4615 23.6393 18.4615 23.1481V21.3287C21.8919 19.213 24 15.5208 24 11.5741C24 5.19213 18.6173 0 12 0ZM17.0908 19.9873C16.9466 20.0674 16.8265 20.1849 16.7429 20.3273C16.6594 20.4698 16.6153 20.6321 16.6154 20.7975V23.1481H14.7692V20.3704C14.7692 20.1248 14.672 19.8893 14.4989 19.7156C14.3258 19.542 14.091 19.4444 13.8462 19.4444C13.6013 19.4444 13.3666 19.542 13.1934 19.7156C13.0203 19.8893 12.9231 20.1248 12.9231 20.3704V23.1481H11.0769V20.3704C11.0769 20.1248 10.9797 19.8893 10.8066 19.7156C10.6334 19.542 10.3987 19.4444 10.1538 19.4444C9.90903 19.4444 9.67424 19.542 9.50113 19.7156C9.32802 19.8893 9.23077 20.1248 9.23077 20.3704V23.1481H7.38462V20.7975C7.3847 20.6321 7.34065 20.4698 7.25705 20.3273C7.17346 20.1849 7.05336 20.0674 6.90923 19.9873C3.78577 18.2512 1.84615 15.0278 1.84615 11.5741C1.84615 6.21296 6.40154 1.85185 12 1.85185C17.5985 1.85185 22.1538 6.21296 22.1538 11.5741C22.1538 15.0266 20.2142 18.2512 17.0908 19.9873Z" fill="#666666"/>
<path fill-rule="evenodd" clip-rule="evenodd" d="M5 13C5 12.4477 5.38376 12 5.85714 12H10.1429C10.6162 12 11 12.4477 11 13C11 13.5523 10.6162 14 10.1429 14H5.85714C5.38376 14 5 13.5523 5 13Z" fill="#666666"/>
<path fill-rule="evenodd" clip-rule="evenodd" d="M13 13C13 12.4477 13.3838 12 13.8571 12H18.1429C18.6162 12 19 12.4477 19 13C19 13.5523 18.6162 14 18.1429 14H13.8571C13.3838 14 13 13.5523 13 13Z" fill="#666666"/>
</svg>
